# Blender v2.72 (sub 0) OBJ File: ''
# www.blender.org
mtllib model/uvcube2.mtl
o Cube
v 1.000000 -1.000000 -1.000000
v 1.000000 -1.000000 1.000000
v -1.000000 -1.000000 1.000000
v -1.000000 -1.000000 -1.000000
v 1.833062 1.000000 -0.999999
v 0.999999 1.000000 1.000001
v -1.000000 1.000000 1.952401
v -1.000000 1.000000 -1.000000
vt 0.655557 0.400925
vt 0.465752 0.645292
vt 0.362405 0.466895
vt 0.097039 0.282410
vt 0.254923 0.491082
vt 0.199185 0.758957
vt 0.118025 0.000081
vt 0.379368 0.000081
vt 0.590273 0.875398
vt 0.360166 0.999919
vt 0.379368 0.261424
vt 0.000081 0.548397
vn 0.000000 -1.000000 0.000000
vn 0.000000 1.000000 0.000000
vn 0.923100 0.000000 0.384500
vn 0.429900 -0.000000 0.902900
vn -1.000000 -0.000000 -0.000000
vn 0.000000 0.000000 -1.000000
vn 0.923100 -0.384500 0.000000
vn -0.000000 -0.429900 0.902900
usemtl Material
s off
f 2/1/1 3/2/1 4/3/1
f 5/4/2 8/5/2 7/6/2
f 5/4/3 6/7/3 2/8/3
f 2/9/4 6/10/4 7/6/4
f 7/6/5 8/5/5 4/3/5
f 5/4/6 1/11/6 4/3/6
f 1/11/1 2/1/1 4/3/1
f 6/12/2 5/4/2 7/6/2
f 1/11/7 5/4/7 2/8/7
f 3/2/8 2/9/8 7/6/8
f 3/2/5 7/6/5 4/3/5
f 8/5/6 5/4/6 4/3/6
